<svg xmlns="http://www.w3.org/2000/svg" width="512" height="512" viewBox="0 0 512 512" fill="none">
  <defs>
    <linearGradient id="frame" x1="88" y1="86" x2="432" y2="426" gradientUnits="userSpaceOnUse">
      <stop offset="0" stop-color="#E7EBF8"/>
      <stop offset="1" stop-color="#656A78"/>
    </linearGradient>
    <linearGradient id="screenGlow" x1="256" y1="130" x2="256" y2="390" gradientUnits="userSpaceOnUse">
      <stop stop-color="#0D142A"/>
      <stop offset="1" stop-color="#03050D"/>
    </linearGradient>
    <filter id="soft" x="86" y="104" width="340" height="286" filterUnits="userSpaceOnUse" color-interpolation-filters="sRGB">
      <feGaussianBlur stdDeviation="14"/>
    </filter>
  </defs>
  <path d="M88 152L146 120L140 196L88 220V152Z" fill="url(#frame)" opacity=".85"/>
  <path d="M424 152L366 120L372 196L424 220V152Z" fill="url(#frame)" opacity=".85"/>
  <path d="M124 92L160 62L184 116L124 132V92Z" fill="#898E9D"/>
  <path d="M388 92L352 62L328 116L388 132V92Z" fill="#898E9D"/>
  <rect x="108" y="112" width="296" height="300" rx="84" fill="url(#frame)"/>
  <rect x="124" y="128" width="264" height="268" rx="70" fill="#0B0F1C" stroke="#C6CDDD" stroke-opacity=".45"/>
  <rect x="144" y="146" width="224" height="226" rx="58" fill="url(#screenGlow)"/>
  <g filter="url(#soft)">
    <rect x="176" y="214" width="64" height="20" rx="6" fill="#F1F4FF"/>
    <rect x="272" y="214" width="64" height="20" rx="6" fill="#F1F4FF"/>
  </g>
  <rect x="176" y="214" width="64" height="20" rx="6" fill="#F1F4FF"/>
  <rect x="272" y="214" width="64" height="20" rx="6" fill="#F1F4FF"/>
  <path d="M232 296H290L300 306L288 320H272L278 312H232L220 324H212V312L232 296Z" fill="#F1F4FF"/>
  <path d="M190 404H322" stroke="#E9EDF8" stroke-width="7" stroke-linecap="round"/>
  <path d="M214 435H298" stroke="#D8DEEE" stroke-width="10" stroke-linecap="round"/>
</svg>